<?xml version="1.0" standalone="no"?>
<!DOCTYPE svg PUBLIC "-//W3C//DTD SVG 20010904//EN"
 "http://www.w3.org/TR/2001/REC-SVG-20010904/DTD/svg10.dtd">
<svg version="1.0" xmlns="http://www.w3.org/2000/svg"
 width="600.000000pt" height="600.000000pt" viewBox="0 0 600.000000 600.000000"
 preserveAspectRatio="xMidYMid meet">

<g transform="translate(0.000000,600.000000) scale(0.100000,-0.100000)"
fill="#000000" stroke="none">
<path d="M2640 5972 c-185 -18 -334 -112 -403 -254 -52 -109 -58 -149 -57
-364 0 -108 -4 -195 -9 -198 -5 -3 -7 -41 -4 -84 4 -49 1 -86 -5 -99 -9 -16
-8 -24 3 -33 18 -15 22 -185 5 -195 -14 -8 -14 -402 0 -410 6 -3 10 -28 10
-55 0 -27 -4 -52 -10 -55 -6 -4 -10 -82 -10 -200 0 -118 4 -196 10 -200 6 -4
10 -108 10 -280 l0 -274 -29 -15 c-73 -38 -106 -112 -99 -226 5 -85 40 -174
97 -244 l31 -39 0 -1161 c0 -1011 2 -1170 15 -1221 38 -148 117 -243 253 -308
l89 -42 -643 0 c-353 0 -637 -3 -631 -7 7 -4 789 -8 1739 -8 l1728 0 77 21
c103 28 146 51 211 112 62 60 96 112 126 200 l21 62 3 1775 c2 1133 6 1778 12
1784 14 14 13 643 0 651 -6 4 -10 162 -10 440 0 247 -5 467 -11 512 -19 142
-95 268 -204 337 -128 82 -80 79 -1250 80 -572 0 -1051 0 -1065 -2z m2165 -45
c179 -52 276 -147 321 -314 13 -51 15 -349 14 -2623 0 -2285 -2 -2572 -15
-2625 -44 -167 -143 -264 -318 -313 -57 -16 -150 -17 -1132 -17 -1019 0 -1073
1 -1140 19 -139 38 -228 104 -281 209 -57 111 -54 -31 -54 2722 0 2725 -2
2605 49 2719 40 93 144 177 265 216 77 25 205 28 1211 26 934 -2 1025 -3 1080
-19z m-2628 -1449 c-1 -40 -3 -10 -3 67 0 77 1 110 3 73 2 -37 2 -100 0 -140z
m2990 -325 c-1 -71 -3 -13 -3 127 0 140 2 198 3 128 2 -71 2 -185 0 -255z
m-2990 -195 c-1 -40 -3 -10 -3 67 0 77 1 110 3 73 2 -37 2 -100 0 -140z"/>
<path d="M2560 5899 c-76 -15 -164 -65 -219 -124 -57 -63 -88 -135 -101 -239
-12 -90 -13 -4997 -1 -5086 13 -100 28 -143 72 -209 50 -74 131 -131 226 -157
65 -18 121 -19 1133 -19 1146 0 1117 -1 1223 52 106 53 185 170 206 303 7 44
11 888 11 2570 -1 2685 1 2600 -50 2700 -54 106 -165 186 -290 210 -66 13
-2146 12 -2210 -1z m437 -1855 c8 -8 -24 -11 -116 -11 -126 0 -257 -18 -341
-48 -99 -35 -140 -44 -140 -32 0 30 376 106 511 103 42 0 81 -6 86 -12z m1607
-50 c56 -15 124 -37 151 -49 98 -45 174 -73 179 -67 3 3 6 -2 6 -11 0 -17 -15
-13 -201 61 -103 41 -186 62 -248 62 -70 0 -68 18 3 29 5 0 55 -11 110 -25z
m-1577 -10 c-3 -3 -12 -4 -19 -1 -8 3 -5 6 6 6 11 1 17 -2 13 -5z m13 -49
c-37 -44 -136 -96 -395 -205 -99 -42 -201 -98 -230 -126 -13 -13 -15 -13 -15
-1 0 28 123 96 313 174 134 54 249 112 296 147 39 29 49 33 31 11z m1096 -21
c33 -14 151 -60 263 -101 246 -90 331 -128 421 -188 57 -38 145 -125 127 -125
-3 0 -31 25 -62 55 -73 72 -233 150 -490 241 -104 37 -219 80 -254 95 -35 16
-71 29 -80 29 -14 0 -14 2 -1 10 8 5 16 10 16 10 1 0 28 -12 60 -26z m-1711
-1104 c10 -11 16 -20 13 -20 -3 0 -13 9 -23 20 -10 11 -16 20 -13 20 3 0 13
-9 23 -20z m1437 -275 c190 -25 403 -91 538 -167 172 -97 367 -262 494 -417
l57 -70 -7 -63 c-6 -52 -9 -59 -18 -44 -6 10 -28 40 -48 67 -21 27 -38 51 -38
55 0 4 -6 12 -14 18 -7 6 -39 44 -70 84 -52 66 -85 97 -186 172 -18 14 -38 30
-44 36 -29 28 -192 115 -286 152 -173 69 -355 108 -545 116 -97 5 -199 -3
-375 -29 -54 -8 -260 -76 -260 -86 0 -5 -6 -9 -14 -9 -24 0 -167 -70 -236
-116 -36 -24 -112 -92 -170 -151 -156 -160 -215 -238 -225 -298 l-8 -40 84 81
c154 148 285 242 457 328 338 169 780 209 1186 105 244 -62 486 -205 709 -419
l97 -94 -1 -75 c-1 -62 -3 -69 -8 -35 -9 52 -26 74 -130 164 -35 30 -71 62
-80 71 -9 9 -64 52 -122 97 -113 86 -204 139 -309 179 -231 88 -387 114 -655
108 -99 -2 -196 -6 -215 -10 -216 -38 -320 -73 -475 -160 -103 -58 -249 -149
-265 -165 -3 -3 -22 -18 -43 -33 -45 -34 -117 -105 -117 -117 0 -4 -13 -13
-30 -20 -16 -7 -30 -17 -30 -22 0 -5 -11 -19 -24 -31 -13 -13 -26 -36 -29 -52
-2 -17 -5 40 -6 125 l-1 156 84 94 c258 292 552 462 891 514 119 19 354 19
487 1z"/>
<path d="M1259 5684 c-30 -9 -59 -28 -82 -53 -120 -133 -28 -341 150 -341 181
0 269 217 139 346 -39 40 -95 65 -141 63 -11 0 -41 -7 -66 -15z"/>
<path d="M1563 5485 c0 -22 2 -30 4 -17 2 12 2 30 0 40 -3 9 -5 -1 -4 -23z"/>
<path d="M1551 5433 c-1 -6 -4 -20 -7 -30 -5 -17 -5 -17 6 0 6 10 9 23 6 30
-3 9 -5 9 -5 0z"/>
<path d="M1489 5323 l-24 -28 28 24 c25 23 32 31 24 31 -2 0 -14 -12 -28 -27z"/>
<path d="M841 5294 c0 -11 3 -14 6 -6 3 7 2 16 -1 19 -3 4 -6 -2 -5 -13z"/>
<path d="M841 5124 c0 -11 3 -14 6 -6 3 7 2 16 -1 19 -3 4 -6 -2 -5 -13z"/>
<path d="M1230 5103 c-124 -65 -146 -229 -44 -325 104 -97 264 -64 325 67 26
56 24 111 -7 174 -53 105 -166 140 -274 84z"/>
<path d="M1495 5090 c10 -11 20 -20 23 -20 3 0 -3 9 -13 20 -10 11 -20 20 -23
20 -3 0 3 -9 13 -20z"/>
<path d="M843 4980 c0 -25 2 -35 4 -22 2 12 2 32 0 45 -2 12 -4 2 -4 -23z"/>
<path d="M843 4885 c0 -27 2 -38 4 -22 2 15 2 37 0 50 -2 12 -4 0 -4 -28z"/>
<path d="M842 4750 c0 -14 2 -19 5 -12 2 6 2 18 0 25 -3 6 -5 1 -5 -13z"/>
<path d="M841 4704 c0 -11 3 -14 6 -6 3 7 2 16 -1 19 -3 4 -6 -2 -5 -13z"/>
<path d="M841 4654 c0 -11 3 -14 6 -6 3 7 2 16 -1 19 -3 4 -6 -2 -5 -13z"/>
<path d="M825 4607 c-4 -10 -5 -21 -1 -24 10 -10 18 4 13 24 -4 17 -4 17 -12
0z"/>
<path d="M824 4007 c-4 -10 -2 -23 3 -28 14 -14 24 13 13 32 -7 11 -10 10 -16
-4z"/>
<path d="M842 3935 c0 -16 2 -22 5 -12 2 9 2 23 0 30 -3 6 -5 -1 -5 -18z"/>
<path d="M841 3664 c0 -11 3 -14 6 -6 3 7 2 16 -1 19 -3 4 -6 -2 -5 -13z"/>
<path d="M843 3595 c0 -27 2 -38 4 -22 2 15 2 37 0 50 -2 12 -4 0 -4 -28z"/>
<path d="M842 3500 c0 -19 2 -27 5 -17 2 9 2 25 0 35 -3 9 -5 1 -5 -18z"/>
<path d="M842 3440 c0 -14 2 -19 5 -12 2 6 2 18 0 25 -3 6 -5 1 -5 -13z"/>
<path d="M841 3384 c0 -11 3 -14 6 -6 3 7 2 16 -1 19 -3 4 -6 -2 -5 -13z"/>
<path d="M841 3314 c0 -11 3 -14 6 -6 3 7 2 16 -1 19 -3 4 -6 -2 -5 -13z"/>
<path d="M844 3070 c0 -69 1 -97 3 -62 2 34 2 90 0 125 -2 34 -3 6 -3 -63z"/>
<path d="M843 2905 c0 -22 2 -30 4 -17 2 12 2 30 0 40 -3 9 -5 -1 -4 -23z"/>
<path d="M842 2840 c0 -14 2 -19 5 -12 2 6 2 18 0 25 -3 6 -5 1 -5 -13z"/>
<path d="M843 2765 c0 -22 2 -30 4 -17 2 12 2 30 0 40 -3 9 -5 -1 -4 -23z"/>
<path d="M841 2704 c0 -11 3 -14 6 -6 3 7 2 16 -1 19 -3 4 -6 -2 -5 -13z"/>
<path d="M841 2634 c0 -11 3 -14 6 -6 3 7 2 16 -1 19 -3 4 -6 -2 -5 -13z"/>
<path d="M843 2480 c0 -30 2 -43 4 -27 2 15 2 39 0 55 -2 15 -4 2 -4 -28z"/>
<path d="M842 2400 c0 -14 2 -19 5 -12 2 6 2 18 0 25 -3 6 -5 1 -5 -13z"/>
<path d="M841 2344 c0 -11 3 -14 6 -6 3 7 2 16 -1 19 -3 4 -6 -2 -5 -13z"/>
<path d="M842 2290 c0 -14 2 -19 5 -12 2 6 2 18 0 25 -3 6 -5 1 -5 -13z"/>
<path d="M842 2110 c0 -19 2 -27 5 -17 2 9 2 25 0 35 -3 9 -5 1 -5 -18z"/>
<path d="M841 1994 c0 -11 3 -14 6 -6 3 7 2 16 -1 19 -3 4 -6 -2 -5 -13z"/>
<path d="M842 1945 c0 -16 2 -22 5 -12 2 9 2 23 0 30 -3 6 -5 -1 -5 -18z"/>
<path d="M841 1894 c0 -11 3 -14 6 -6 3 7 2 16 -1 19 -3 4 -6 -2 -5 -13z"/>
<path d="M843 1815 c0 -33 2 -45 4 -27 2 18 2 45 0 60 -2 15 -4 0 -4 -33z"/>
<path d="M842 1690 c0 -19 2 -27 5 -17 2 9 2 25 0 35 -3 9 -5 1 -5 -18z"/>
<path d="M842 1625 c0 -16 2 -22 5 -12 2 9 2 23 0 30 -3 6 -5 -1 -5 -18z"/>
<path d="M844 1505 c0 -49 1 -71 3 -48 2 23 2 64 0 90 -2 26 -3 8 -3 -42z"/>
<path d="M842 1390 c0 -14 2 -19 5 -12 2 6 2 18 0 25 -3 6 -5 1 -5 -13z"/>
<path d="M842 1340 c0 -14 2 -19 5 -12 2 6 2 18 0 25 -3 6 -5 1 -5 -13z"/>
<path d="M842 1195 c0 -16 2 -22 5 -12 2 9 2 23 0 30 -3 6 -5 -1 -5 -18z"/>
<path d="M844 1005 c0 -82 2 -115 3 -72 2 43 2 110 0 150 -1 40 -3 5 -3 -78z"/>
<path d="M842 825 c0 -16 2 -22 5 -12 2 9 2 23 0 30 -3 6 -5 -1 -5 -18z"/>
<path d="M842 760 c0 -14 2 -19 5 -12 2 6 2 18 0 25 -3 6 -5 1 -5 -13z"/>
</g>
</svg>
