<svg viewBox="0 0 64 64" xml:space="preserve" xmlns="http://www.w3.org/2000/svg" fill-rule="evenodd" clip-rule="evenodd" stroke-linejoin="round" stroke-miterlimit="2"><path d="M59 43H5v-8a1 1 0 0 0-2 0v13c0 .796.316 1.559.879 2.121A2.996 2.996 0 0 0 6 51h20.606c-.16 2.682-.855 6.147-3.417 8H21.5a1 1 0 0 0 0 2h21a1 1 0 0 0 0-2h-1.689c-2.562-1.854-3.257-5.318-3.417-8H58c.796 0 1.559-.316 2.121-.879A2.996 2.996 0 0 0 61 48V18c0-.796-.316-1.559-.879-2.121A2.996 2.996 0 0 0 58 15H43a1 1 0 0 0 0 2h15a.997.997 0 0 1 1 1v25Zm-9-17H14c-.796 0-1.559.316-2.121.879A2.996 2.996 0 0 0 11 29v9a3 3 0 0 0 3 3h36a3 3 0 0 0 3-3v-9c0-.796-.316-1.559-.879-2.121A2.996 2.996 0 0 0 50 26Zm-6.228 5.768L43 31.322a1 1 0 0 0-1 1.732l.772.446-.772.446a1 1 0 0 0 1 1.732l.772-.446V36a1 1 0 0 0 2 0v-.768l.772.446a1 1 0 0 0 1-1.732l-.772-.446.772-.446a1 1 0 0 0-1-1.732l-.772.446V31a1 1 0 0 0-2 0v.768Zm-12.772 0-.772-.446a1 1 0 0 0-1 1.732L30 33.5l-.772.446a1 1 0 0 0 1 1.732l.772-.446V36a1 1 0 0 0 2 0v-.768l.772.446a1 1 0 0 0 1-1.732L34 33.5l.772-.446a1 1 0 0 0-1-1.732l-.772.446V31a1 1 0 0 0-2 0v.768Zm-12.728 0-.772-.446a1 1 0 0 0-1 1.732l.772.446-.772.446a1 1 0 0 0 1 1.732l.772-.446V36a1 1 0 0 0 2 0v-.768l.772.446a1 1 0 0 0 1-1.732l-.772-.446.772-.446a1 1 0 0 0-1-1.732l-.772.446V31a1 1 0 0 0-2 0v.768ZM21 15H6c-.796 0-1.559.316-2.121.879A2.996 2.996 0 0 0 3 18v13a1 1 0 0 0 2 0V18a.997.997 0 0 1 1-1h15a1 1 0 0 0 0-2Zm5.465-2.505a9.29 9.29 0 0 0-4.345 7.863V21a3 3 0 0 0 3 3h13.76a3 3 0 0 0 3-3v-.642a9.29 9.29 0 0 0-4.345-7.863 6.277 6.277 0 0 0-1.102-7.381 6.273 6.273 0 0 0-8.866 0 6.277 6.277 0 0 0-1.102 7.381Z" fill="#05070f" class="fill-000000"></path></svg>