<svg viewBox="0 0 512 512" xml:space="preserve" xmlns="http://www.w3.org/2000/svg" enable-background="new 0 0 512 512"><path d="M466.293 348.773c-10.389-16.596-30.474-27.181-70.488-48.268-8.922-4.702-19.035-10.033-30.211-16.047a4.682 4.682 0 0 0-5.304.6l-68.596 59.979-68.803-59.978a4.686 4.686 0 0 0-5.299-.596c-11.776 6.336-22.34 11.888-31.661 16.787-39.382 20.695-59.15 31.084-69.378 47.515a49.583 49.583 0 0 0-2.248 4.034c-40.947-14.189-69.151-53.313-69.151-96.797 0-56.506 46.198-102.477 102.983-102.477 20.369 0 39.982 5.897 56.847 17.04 11.214 41.97 41.089 90.123 88.337 90.123 61.304 0 93.373-81.044 93.373-124.489 0-48.141-41.887-87.306-93.373-87.306-51.479 0-93.36 39.165-93.36 87.306 0 6.523.729 13.897 2.164 21.713-16.48-9.018-34.932-13.757-53.988-13.757-61.953 0-112.354 50.175-112.354 111.848 0 24.618 7.881 47.97 22.792 67.533 13.279 17.423 31.7 30.749 52.303 37.983-4.473 14.938-4.256 34.766-3.897 66.745.1 8.913.213 19.017.235 30.164a4.685 4.685 0 0 0 4.686 4.676h359.241a4.685 4.685 0 0 0 4.686-4.676c.021-10.884.128-20.788.224-29.524.457-42.239.687-63.441-9.76-80.131zm-345.872 13.701-.005.016.005-.016zm-.453 1.411c-.061.2-.119.404-.178.605.059-.201.117-.405.178-.605zm-.44 1.521c-.062.224-.122.45-.181.677.06-.226.119-.453.181-.677zm-.41 1.585c-.056.229-.113.456-.167.688.054-.232.111-.46.167-.688zm-.397 1.718c-.043.199-.088.396-.13.598.042-.203.087-.399.13-.598zm-.445 2.201c-.039.213-.075.431-.113.646.038-.215.074-.433.113-.646zm-.299 1.739zm-.274 1.806zm4.526-15.376zm-.052-1.02zm.028 1.239a4.674 4.674 0 0 0 0 0zm-.721 2.015c-.027.041-.047.087-.075.127.028-.041.049-.086.075-.127zm1.906-5.658zm-5.941 20.723c-.03.247-.062.492-.091.743.029-.251.061-.496.091-.743zm-.291 2.582-.058.611.058-.611zm-.183 1.99c-.024.281-.046.566-.069.851.022-.284.044-.57.069-.851zm-.164 2.08-.062.887.062-.887zm-.144 2.19c-.017.284-.035.566-.051.854l.051-.854zm-.137 2.543-.034.724.034-.724zm-.114 2.73-.03.885c.01-.294.019-.593.03-.885zm-.076 2.382zm-.061 2.504-.019.953.019-.953zm-.048 2.778-.01.714.01-.714zm-.035 3.276-.004.863.004-.863zm-.013 2.727-.001 1.059.001-1.059zm-.002 2.853.002 1.059-.002-1.059zm.008 3.13.003.832-.003-.832zm.022 3.784zm.025 3.159.01 1.042-.01-1.042zm.032 3.258.012 1.182-.012-1.182zm.036 3.471.011 1.074-.011-1.074z" fill="#05070f" class="fill-000000"></path><path d="M119.297 273.689c-2.353-3.076-3.968-6.721-4.815-10.969l-20.836 2.451c1.615 10.373 5.276 18.426 11.05 24.113 5.767 5.688 12.855 9.479 22.042 10.6l.08 14.657 11.65-.248.037-15.007c10.474-1.637 18.886-5.702 24.762-12.285 5.883-6.59 8.807-14.672 8.807-24.281 0-8.599-2.325-15.647-7.002-21.145-4.647-5.471-13.425-9.959-26.303-13.392v-31.112c5.196 2.232 8.419 6.482 9.676 12.737l20.347-2.611c-1.396-7.973-4.62-14.345-9.655-19.11-5.058-4.757-12.133-7.471-20.662-8.482l-.007-11.398h-11.729l.087 11.252c-9.135.902-16.145 4.277-21.64 10.208-5.495 5.906-8.259 13.23-8.259 21.938 0 8.604 2.434 15.893 7.302 21.938 4.838 6.015 12.469 10.504 22.89 13.472v33.345c-2.873-1.388-5.468-3.592-7.822-6.671zm19.471-23.24c4.838 1.39 8.309 3.346 10.414 5.928 2.134 2.561 3.201 5.639 3.201 9.173 0 4.001-1.257 7.464-3.8 10.403-2.515 2.938-5.796 4.844-9.815 5.709v-31.213zm-19.332-31.926c-1.673-2.422-2.492-5.041-2.492-7.843 0-3.077.899-5.877 2.733-8.438s4.297-4.378 7.44-5.498v27.605c-3.442-1.476-6.014-3.433-7.681-5.826z" fill="#05070f" class="fill-000000"></path></svg>