<svg viewBox="0 0 64 64" xmlns="http://www.w3.org/2000/svg"><path d="m57.56 11.35-25-7.26a2 2 0 0 0-1.14 0l-25 7.27A2 2 0 0 0 5 13.27V35.1c0 19 25.43 25.57 26.52 25.84A2 2 0 0 0 32 61a1.77 1.77 0 0 0 .52-.07C34.08 60.54 59 53.92 59 35.1V13.27a2 2 0 0 0-1.44-1.92ZM55 35.1C55 49.7 35.36 56 32 56.93 28.64 56 9 49.73 9 35.1V14.78l23-6.7 23 6.7Z" fill="#05070f" class="fill-231f20"></path><path d="M30 20v2.09A6 6 0 0 0 31 34h3a2 2 0 0 1 0 4h-6a2 2 0 0 0 0 4h2v2a2 2 0 0 0 4 0v-2a6 6 0 0 0 0-12h-3a2 2 0 0 1 0-4h6a2 2 0 0 0 0-4h-3v-2a2 2 0 0 0-4 0Z" fill="#05070f" class="fill-231f20"></path></svg>